<?xml version="1.0" standalone="no"?><!DOCTYPE svg PUBLIC "-//W3C//DTD SVG 1.1//EN" "http://www.w3.org/Graphics/SVG/1.1/DTD/svg11.dtd"><svg t="1524139208676" class="icon" style="" viewBox="0 0 1025 1024" version="1.1" xmlns="http://www.w3.org/2000/svg" p-id="11323" xmlns:xlink="http://www.w3.org/1999/xlink" width="16.015625" height="16"><defs><style type="text/css"></style></defs><path d="M512.003 830.596c-43.005 0-84.73-8.425-124.016-25.042-37.94-16.047-72.011-39.017-101.267-68.273s-52.226-63.327-68.273-101.267c-16.616-39.286-25.042-81.011-25.042-124.016s8.425-84.73 25.042-124.016c16.047-37.94 39.017-72.011 68.273-101.267 29.256-29.255 63.327-52.226 101.267-68.272 39.286-16.616 81.011-25.043 124.016-25.043s84.729 8.425 124.016 25.043c37.94 16.047 72.010 39.017 101.267 68.272 29.255 29.256 52.226 63.327 68.273 101.267 16.616 39.286 25.042 81.011 25.042 124.016s-8.425 84.73-25.042 124.016c-16.047 37.94-39.017 72.011-68.273 101.267-29.256 29.255-63.327 52.226-101.267 68.273-39.287 16.616-81.011 25.042-124.016 25.042zM512.003 218.698c-78.344 0-151.998 30.509-207.395 85.905s-85.906 129.052-85.906 207.396 30.509 151.998 85.905 207.396 129.052 85.904 207.396 85.904 151.998-30.509 207.395-85.905 85.906-129.052 85.906-207.395-30.509-151.998-85.906-207.395-129.051-85.906-207.395-85.906z" p-id="11324" fill="#d81e06"></path><path d="M420.806 528.365c-9.037 0-16.367-7.329-16.367-16.368 0-9.037 7.328-16.365 16.367-16.365h74.824v-74.827c0-9.037 7.334-16.367 16.371-16.367 9.034 0 16.367 7.329 16.367 16.367v74.824h74.824c9.037 0 16.367 7.329 16.367 16.367s-7.328 16.367-16.367 16.367h-74.824v74.824c0 9.042-7.333 16.372-16.367 16.372-9.038 0-16.371-7.329-16.371-16.372v-74.823l-74.824-0.001z" p-id="11325" fill="#d81e06"></path></svg>