<?xml version="1.0" standalone="no"?><!DOCTYPE svg PUBLIC "-//W3C//DTD SVG 1.1//EN" "http://www.w3.org/Graphics/SVG/1.1/DTD/svg11.dtd"><svg t="1523536526846" class="icon" style="" viewBox="0 0 1024 1024" version="1.1" xmlns="http://www.w3.org/2000/svg" p-id="653" xmlns:xlink="http://www.w3.org/1999/xlink" width="32" height="32"><defs><style type="text/css"></style></defs><path d="M947.107757 844.853981c0 12.142367-2.074194 23.479881-6.228577 34.023732-4.154383 10.543052-10.063377 19.806171-17.726981 27.795355-7.668801 7.987185-16.616334 14.216561-26.840002 18.685331-10.219471 4.473967-21.40069 6.708252-33.544057 6.708252l-695.786657 0c-12.137571 0-23.640971-2.234485-34.502607-6.708252-10.859637-4.46877-20.44214-10.698347-28.749708-18.685531-8.309566-7.988184-14.858526-17.252103-19.64588-27.795155-4.794349-10.544051-7.189925-21.880365-7.189925-34.023732l0-478.237355c0-24.274942 8.462862-44.88137 25.395782-61.813091 16.93272-16.929722 37.538149-25.399579 61.817088-25.399579l695.789655 0c24.279938 0 44.885368 8.469857 61.816289 25.399579 16.933719 16.93272 25.395582 37.538149 25.395582 61.813091l0 130.343427L729.556457 496.960053c-24.280938 0-44.887366 8.30357-61.818087 24.915907-16.93172 16.611338-25.395582 37.057475-25.395582 61.338413 0.639966 16.611338 4.154383 31.307773 10.544051 44.08611 5.108736 10.863435 13.576595 20.765521 25.395582 29.709257 11.820985 8.942537 28.913996 13.417503 51.275036 13.417503l217.5513 0 0 174.426539L947.107757 844.853781zM816.768327 235.318646 381.658731 235.318646c34.503607-17.886273 67.087115-35.138576 97.756921-51.749914 26.834806-14.057469 53.352227-28.114738 79.549066-42.171208 26.193841-14.052472 46.639978-24.915907 61.338413-32.584708 22.361039-12.13857 42.326503-17.730978 59.898189-16.772628 17.56689 0.959549 32.424416 3.994092 44.559988 9.103828 14.058468 7.028635 26.199837 16.291754 36.423505 27.794355L816.768327 235.318646zM686.428897 583.215572c0-12.137571 4.154383-22.361039 12.458953-30.668807 8.308567-8.30457 18.531236-12.457954 30.668807-12.457954 12.135572 0 22.361039 4.153384 30.667607 12.457954 8.304769 8.308567 12.458953 18.531236 12.458953 30.668807 0 12.136571-4.154383 22.520331-12.458953 31.148481-8.306768 8.624153-18.531236 12.937628-30.667607 12.937628-12.137571 0-22.361039-4.313675-30.668807-12.937628C690.583081 605.735903 686.428897 595.352143 686.428897 583.215572L686.428897 583.215572z" p-id="654" fill="#d81e06"></path></svg>