<?xml version="1.0" standalone="no"?><!DOCTYPE svg PUBLIC "-//W3C//DTD SVG 1.1//EN" "http://www.w3.org/Graphics/SVG/1.1/DTD/svg11.dtd"><svg t="1523693988434" class="icon" style="" viewBox="0 0 1024 1024" version="1.1" xmlns="http://www.w3.org/2000/svg" p-id="3652" xmlns:xlink="http://www.w3.org/1999/xlink" width="16" height="16"><defs><style type="text/css"></style></defs><path d="M847.496 815.096l-273.28-273.264 273.24-273.256a30.08 30.08 0 0 0 0-42.568 30.08 30.08 0 0 0-42.56 0L531.656 499.272l-273.216-273.2a30.088 30.088 0 0 0-42.568 0 30.088 30.088 0 0 0 0 42.568l273.216 273.2-273.248 273.256a30.088 30.088 0 0 0 21.28 51.392c7.704 0 15.408-2.936 21.288-8.824l273.248-273.256 273.264 273.256c5.88 5.88 13.584 8.824 21.288 8.824s15.4-2.936 21.28-8.824a30.096 30.096 0 0 0 0.008-42.568z" fill="#d81e06" p-id="3653"></path></svg>