<?xml version="1.0" standalone="no"?><!DOCTYPE svg PUBLIC "-//W3C//DTD SVG 1.1//EN" "http://www.w3.org/Graphics/SVG/1.1/DTD/svg11.dtd"><svg t="1523965160274" class="icon" style="" viewBox="0 0 1024 1024" version="1.1" xmlns="http://www.w3.org/2000/svg" p-id="6424" xmlns:xlink="http://www.w3.org/1999/xlink" width="16" height="16"><defs><style type="text/css"></style></defs><path d="M809.988783 170.806574H214.011217a37.308558 37.308558 0 0 1-37.308559-37.308558V37.308558a37.308558 37.308558 0 0 1 37.308559-37.308558h595.977566a37.308558 37.308558 0 0 1 37.308559 37.308558v96.189458a37.308558 37.308558 0 0 1-37.308559 37.308558z m-590.647772-42.638352h585.317978V42.638352H219.341011z" fill="#FFAE45" p-id="6425"></path><path d="M888.483325 298.468465H135.516675a37.308558 37.308558 0 0 1-37.308558-37.308558v-95.683127a37.308558 37.308558 0 0 1 37.308558-37.308558h752.96665a37.308558 37.308558 0 0 1 37.308558 37.308558V261.159907a37.308558 37.308558 0 0 1-37.308558 37.308558zM140.846469 255.830113h742.307062v-85.023539H140.846469z" fill="#FFAE45" p-id="6426"></path><path d="M736.450951 1002.680824H287.549049c-6.062641 0-11.618951-5.409741-12.338473-11.992037L200.313646 298.321896C199.061144 286.716269 204.644104 277.149289 212.798688 277.149289h598.535868c8.087962 0 13.670922 9.553656 12.418421 21.159282l-74.963553 692.313594c-0.719522 6.648918-6.275832 12.058659-12.338473 12.058659z" fill="#FFD9B0" p-id="6427"></path><path d="M736.450951 1024H287.549049c-16.922096 0-31.645652-13.657597-33.537728-31.086024L179.11439 300.613707c-1.412395-13.044671 2.171891-25.409793 9.846795-33.950788A31.672301 31.672301 0 0 1 212.798688 255.830113h598.535868a31.672301 31.672301 0 0 1 23.717584 10.832806c7.661579 8.540995 11.25919 20.906117 9.846794 33.950788l-74.910255 692.300269c-1.892077 17.428426-16.628957 31.086024-33.537728 31.086024z m-440.800615-42.638352h432.699328L802.220609 298.468465H221.766067z" fill="#FFAE45" p-id="6428"></path></svg>