<?xml version="1.0" standalone="no"?><!DOCTYPE svg PUBLIC "-//W3C//DTD SVG 1.1//EN" "http://www.w3.org/Graphics/SVG/1.1/DTD/svg11.dtd"><svg t="1523965195512" class="icon" style="" viewBox="0 0 1024 1024" version="1.1" xmlns="http://www.w3.org/2000/svg" p-id="7216" xmlns:xlink="http://www.w3.org/1999/xlink" width="16" height="16"><defs><style type="text/css"></style></defs><path d="M288.281165 380.158787l220.496463 616.497343L764.821922 394.054196z" fill="#F1C84F" p-id="7217"></path><path d="M723.472906 409.13842L495.709816 960.441876l18.795839 49.793027 242.969624-600.697544z" fill="#F0841B" p-id="7218"></path><path d="M617.01802 739.099526a5.075322 5.075322 0 0 1-4.724393-6.917984l147.199207-376.574055H258.734559l59.434996 152.053913a5.073036 5.073036 0 0 1-9.447644 3.691039L243.87781 345.463701H774.350726l-152.609455 390.411166a5.07075 5.07075 0 0 1-4.723251 3.224659zM593.013118 800.507497a5.071893 5.071893 0 0 1-4.722108-6.917985l12.878059-32.941585a5.079895 5.079895 0 0 1 6.568199-2.880588 5.071893 5.071893 0 0 1 2.878302 6.571628l-12.875773 32.941585a5.075322 5.075322 0 0 1-4.726679 3.226945zM509.114839 1023.998857L356.261906 632.972708a5.069607 5.069607 0 0 1 2.878302-6.569342 5.07075 5.07075 0 0 1 6.570485 2.878302l143.404146 366.854355 66.599888-170.36851c1.02078-2.610819 3.963095-3.886508 6.570485-2.880589a5.075322 5.075322 0 0 1 2.878302 6.571628l-76.048675 194.540305zM346.196993 598.363353a5.074179 5.074179 0 0 1-4.725536-3.226945l-16.613679-42.500108a5.069607 5.069607 0 0 1 2.878302-6.570485 5.067321 5.067321 0 0 1 6.569342 2.878302l16.613679 42.500109a5.071893 5.071893 0 0 1-4.722108 6.919127z" fill="" p-id="7219"></path><path d="M312.994784 178.969124a210.209791 171.567613 0 1 0 420.419581 0 210.209791 171.567613 0 1 0-420.419581 0Z" fill="#EC7699" p-id="7220"></path><path d="M536.997105 7.399226c-7.062014 0-14.033723 0.323495-20.905984 0.933905 101.273256 9.489938 180.427708 91.450678 180.427708 191.173902 0 44.902885-16.09243 86.171886-42.977921 118.88028 50.574901-31.135502 83.555351-81.959597 83.555352-139.419332 0-94.755353-89.589726-171.568756-200.099155-171.568755z" fill="#D8476D" p-id="7221"></path><path d="M332.587357 83.811403a5.075322 5.075322 0 0 1-3.740193-8.497735c10.993102-12.004738 23.616252-22.92011 37.513948-32.440912a5.078752 5.078752 0 0 1 7.051726 1.319127 5.074179 5.074179 0 0 1-1.319127 7.051726C358.831574 60.324321 346.799402 70.727588 336.329835 82.165353a5.060462 5.060462 0 0 1-3.742478 1.64605z" fill="#040000" p-id="7222"></path><path d="M509.113696 394.797205c-126.47726 0-229.372562-88.549514-229.372561-197.391172 0-28.987635 7.130599-56.913338 21.195186-83.002096a5.073036 5.073036 0 0 1 8.92868 4.815841c-13.258708 24.591308-19.980081 50.897252-19.98008 78.186255 0 103.247373 98.345801 187.246243 219.228775 187.246243 120.881832 0 219.231062-83.99887 219.231062-187.246243 0-103.248516-98.348087-187.247386-219.231062-187.247387-35.019724 0-68.482558 6.843683-99.460314 20.342441a5.067321 5.067321 0 0 1-6.674506-2.623393 5.069607 5.069607 0 0 1 2.623393-6.674506c32.261446-14.058871 67.087988-21.188328 103.511427-21.188328 126.474974 0 229.373705 88.549514 229.373705 197.392316-0.001143 108.840515-102.89873 197.390029-229.373705 197.390029z" fill="#040000" p-id="7223"></path><path d="M517.027312 68.711177m-7.913616 0a7.913616 7.913616 0 1 0 15.827233 0 7.913616 7.913616 0 1 0-15.827233 0Z" fill="#E5C569" p-id="7224"></path><path d="M541.227684 52.885087m-7.912473 0a7.912473 7.912473 0 1 0 15.824946 0 7.912473 7.912473 0 1 0-15.824946 0Z" fill="#E5C569" p-id="7225"></path><path d="M541.227684 84.536123m-7.912473 0a7.912473 7.912473 0 1 0 15.824946 0 7.912473 7.912473 0 1 0-15.824946 0Z" fill="#E5C569" p-id="7226"></path><path d="M575.642713 60.79756a7.914759 7.914759 0 0 1-15.827233 0 7.914759 7.914759 0 0 1 15.827233 0z" fill="#E5C569" p-id="7227"></path><path d="M478.131368 92.844105m-10.375833 0a10.375833 10.375833 0 1 0 20.751667 0 10.375833 10.375833 0 1 0-20.751667 0Z" fill="#E5C569" p-id="7228"></path><path d="M575.642713 113.775238a7.914759 7.914759 0 1 1-7.912473-7.913617c4.367749 0 7.912473 3.543581 7.912473 7.913617z" fill="#E5C569" p-id="7229"></path><path d="M517.027312 44.972614m-7.913616 0a7.913616 7.913616 0 1 0 15.827233 0 7.913616 7.913616 0 1 0-15.827233 0Z" fill="#E5C569" p-id="7230"></path><path d="M575.642713 84.536123a7.914759 7.914759 0 1 1-7.912473-7.913616c4.367749 0 7.912473 3.543581 7.912473 7.913616z" fill="#E5C569" p-id="7231"></path><path d="M598.709138 84.536123m-7.913616 0a7.913616 7.913616 0 1 0 15.827232 0 7.913616 7.913616 0 1 0-15.827232 0Z" fill="#E5C569" p-id="7232"></path><path d="M606.621611 121.688854m-7.913616 0a7.913616 7.913616 0 1 0 15.827233 0 7.913616 7.913616 0 1 0-15.827233 0Z" fill="#E5C569" p-id="7233"></path><path d="M441.591334 455.016362l-6.524761-7.798165-30.623398 29.609477 6.524762 7.798164zM448.902541 447.947489l48.302437-46.703253-0.134884-0.161176-13.839398-0.434374-40.852916 39.500639zM397.131968 483.896546l-53.697825 51.919175 3.551583 10.673037 56.671003-54.794048zM475.179908 577.173883l-6.527047-7.800451-61.292518 59.264676 6.527047 7.799307zM520.426864 533.425519l48.302437-46.70211-6.527048-7.80045-48.302436 46.70211zM482.492259 570.103867l30.622254-29.608333-6.525904-7.80045-30.623397 29.608333zM400.049135 635.705837l-17.689327 17.104065 3.551582 10.675323 20.663649-19.978937zM637.178709 420.539606l-6.527047-7.800451-25.278306 24.441564 6.527048 7.80045zM604.591482 452.048898l-6.52819-7.80045-28.549831 27.604495 6.527047 7.80045zM644.489917 413.471877l7.782161-7.523823-14.137745-0.443519-0.171463 0.165748zM537.184572 635.468074l30.623398-29.608333-6.524761-7.798164-30.623398 29.609476zM523.34746 634.739926l-61.292518 59.263532 6.524761 7.797021 61.292519-59.262389zM726.145452 443.305398l2.970892-7.51925-5.119903 4.951869zM624.209203 537.219437l6.524762 7.798164 28.548688-27.604495-6.523619-7.798165zM692.658612 471.03792l6.523618 7.798164 20.910557-20.217844 1.808369-4.576935-5.217065-6.234416zM660.069099 502.547212l6.524761 7.797021 25.277163-24.44042-6.524761-7.797021zM568.594416 590.991562l6.524761 7.798164 48.301294-46.700967-6.524761-7.799307zM454.742591 701.073474l-42.615561 41.203844 3.551583 10.671894 45.58874-44.078717zM583.949552 691.358347l6.527048 7.799307 30.622254-29.608333-6.525904-7.80045zM514.55938 772.561217l-6.527048-7.799307-50.377146 48.709377 6.525905 7.799307zM628.411205 662.479305l17.968241-17.373834 9.028129-22.83895-33.522275 32.412334zM450.342836 820.541303l-9.212168 8.906962 3.551583 10.67418 12.186489-11.781835zM515.344683 757.691895l6.525904 7.798164 61.293662-59.26239-6.525904-7.799307zM574.114401 827.929097l7.580977-19.176488-13.059811 12.627722zM503.631434 884.229739l-33.497128 32.388329 3.551583 10.675323 36.471449-35.265488zM517.470832 884.957888l50.378289-48.709377-6.525904-7.799308-50.37829 48.71052zM723.996441 440.738017l-27.962282-33.418254-13.583346-0.426373 34.233278 40.913499z" fill="" p-id="7234"></path><path d="M716.684091 447.806889l5.217065 6.234416 4.244296-10.735907-2.149011-2.567381zM623.420471 552.088759l40.564856 48.478473 4.244296-10.738193-37.495658-44.811438zM562.202253 478.922959l7.311208-7.070016-58.860022-70.344653-13.290714-0.416085-0.157747 0.152031zM624.209203 537.219437l-48.168695-57.566044-7.311207 7.070016 48.166409 57.566043zM497.362725 401.092205l-0.292631-0.009145 0.134884 0.161176z" fill="" p-id="7235"></path><path d="M576.040508 479.653393l-6.527047-7.80045-7.311208 7.070016 6.527048 7.80045zM616.89571 544.289452l6.524761 7.799307 7.313494-7.071158-6.524762-7.798164zM660.069099 502.547212l-48.168695-57.566043-7.308922 7.067729 48.167552 57.566043zM659.282653 517.413106l25.517211 30.494228 4.24201-10.734764-22.448014-26.828337zM605.373356 437.180719l-28.100596-33.584002-13.58106-0.426373 34.371592 41.078104z" fill="" p-id="7236"></path><path d="M611.900404 444.981169l-6.527048-7.80045-7.310064 7.067729 6.52819 7.80045zM652.759034 509.614941l6.523619 7.798165 7.311207-7.068873-6.524761-7.797021zM529.872222 642.53809l46.766123 55.890272 7.311207-7.070015-46.76498-55.890273zM530.659811 627.671053l-48.167552-57.567186-7.312351 7.070016 48.167552 57.566043zM583.164249 706.227669l26.525418 31.701332 4.243152-10.738193-23.456219-28.033154zM346.232429 407.259179l-7.781018 6.507615 58.680557 70.129752 7.311207-7.068872zM410.967937 484.625838l-7.311208 7.068872 64.996132 77.678722 7.312351-7.070015z" fill="" p-id="7237"></path><path d="M410.967937 484.625838l-6.524762-7.798164-7.311207 7.068872 6.524761 7.798164zM482.492259 570.103867l-6.527047-7.80045-7.312351 7.070015 6.527047 7.800451zM529.872222 642.53809l7.31235-7.070016-6.524761-7.797021-7.312351 7.068873zM576.638345 698.428362l6.525904 7.799307 7.312351-7.070015-6.527048-7.799307zM442.37778 440.149325l-35.042585-41.87941-13.582203-0.42523 41.313581 49.373512zM614.57295 661.748871l7.31235-7.070016-46.766123-55.889129-7.311207 7.070015zM561.283209 598.061577l7.311207-7.070015-48.167552-57.566043-7.312351 7.070015zM506.588609 532.695084l7.311208-7.070015-64.997276-77.67758-7.311207 7.068873zM621.098854 669.549321l10.607881 12.676875 4.244295-10.73705-7.539825-9.009841zM448.902541 447.947489l-6.524761-7.798164-7.311207 7.068872 6.524761 7.798165zM520.426864 533.425519l-6.527047-7.80045-7.311208 7.070015 6.525904 7.80045zM561.283209 598.061577l6.524761 7.798164 7.311207-7.070015-6.524761-7.798164z" fill="" p-id="7238"></path><path d="M621.098854 669.549321l7.312351-7.070016-6.525905-7.80045-7.31235 7.070016zM637.96287 405.670283l-0.148602-0.176036-13.58106-0.42523 6.418454 7.670138zM685.346262 478.106792l7.31235-7.068872-48.168695-57.566043-7.311208 7.067729zM691.871023 485.903813l11.841275 14.152605 4.243153-10.734764-8.773221-10.48557z" fill="" p-id="7239"></path><path d="M644.489917 413.471877l-6.527047-7.801594-7.311208 7.068872 6.527047 7.800451zM691.871023 485.903813l7.311207-7.067729-6.523618-7.798164-7.31235 7.068872zM569.872391 838.666147l2.797143-7.07916-4.820413 4.661524zM561.323217 828.449203l7.31235-7.068872-46.76498-55.890272-7.311207 7.071158zM407.360343 628.638108l-54.855776-65.560819 8.730926 26.241931 38.813642 46.386617zM468.579703 701.800479l-7.31235 7.070016 46.764979 55.891415 7.312351-7.070015zM413.88739 636.437415l-7.312351 7.068873 48.167552 57.567186 7.312351-7.070016zM407.360343 628.638108l-7.311208 7.067729 6.525904 7.800451 7.312351-7.068873z" fill="" p-id="7240"></path><path d="M462.054942 694.003458l-7.312351 7.070016 6.524762 7.797021 7.31235-7.070016zM508.032332 764.76191l6.527048 7.799307 7.311207-7.071158-6.525904-7.798164zM561.323217 828.449203l6.525904 7.799308 4.820413-4.661524 1.444867-3.65789-5.478834-6.548766zM510.157338 892.027903l26.2305 31.34926 4.244296-10.738193-23.161302-27.681082zM457.655186 813.471287l-36.257691-43.332279 8.732069 26.245361 20.213272 24.156934zM464.181091 821.270594l-7.312351 7.070016 46.762694 55.889129 7.313493-7.070016z" fill="" p-id="7241"></path><path d="M457.655186 813.471287l-7.31235 7.070016 6.525904 7.799307 7.312351-7.070016zM503.631434 884.229739l6.525904 7.798164 7.313494-7.070015-6.525905-7.798165zM488.608937 972.144838l19.357096 23.136154 4.244296-10.737051-32.333461-38.642178z" fill="" p-id="7242"></path><path d="M590.797808 60.79756m-7.912473 0a7.912473 7.912473 0 1 0 15.824946 0 7.912473 7.912473 0 1 0-15.824946 0Z" fill="#E5C569" p-id="7243"></path><path d="M504.784812 97.950291m-7.912473 0a7.912473 7.912473 0 1 0 15.824946 0 7.912473 7.912473 0 1 0-15.824946 0Z" fill="#E5C569" p-id="7244"></path><path d="M626.592547 84.536123m-7.913616 0a7.913616 7.913616 0 1 0 15.827233 0 7.913616 7.913616 0 1 0-15.827233 0Z" fill="#E5C569" p-id="7245"></path><path d="M257.0485 333.573272s-78.637775 116.073993 49.148324 67.710972c0 0-26.46712 106.850395 95.021693 45.140649 33.86063-17.198941 42.594985 42.992781 42.594985 42.99278s54.606581 23.647115 90.650515-61.261655c36.040504-84.911057 38.228379 37.61454 80.826794 34.389881 42.593842-3.224659 69.894275-37.621398 76.448756-68.787763 6.549909-31.167509 55.707378 25.794983 61.164493 38.691331 5.460544 12.896348 70.346939-61.572576-20.753953-159.062202-58.981189-63.119177-84.417241-70.648715-93.150454-10.462708-8.738928 60.186007-32.374612 45.843649-73.949961-14.262341-20.111536-29.072223-73.08807-8.476017-97.291871 20.374447-15.248829 18.172855-52.33526 29.061936-81.825855-17.148646s-126.700163 7.524965-128.883466 81.685255z" fill="#FFFFFF" p-id="7246"></path><path d="M461.427385 497.515327c-11.544072 0-19.3068-3.303532-19.631438-3.444132l-2.593672-1.122515-0.409227-2.800572c-1.698633-11.610371-9.687693-41.74224-26.022458-41.742239-2.822291 0-5.938356 0.855032-9.256747 2.54109-25.788124 13.098675-47.199354 19.740032-63.638141 19.740032-13.863403 0-24.490716-4.595224-31.584736-13.659933-11.145133-14.240623-10.275241-35.859895-8.644052-47.972084-38.116356 13.199267-60.581516 11.859565-68.663166-3.374403-11.664097-21.989634 15.094511-64.705787 21.04887-73.732774 2.555951-55.258143 56.947631-102.307753 100.411366-102.307752 16.553095 0 29.610619 6.74995 37.760855 19.518272 12.704309 19.910352 27.980572 30.434787 44.174736 30.434787 13.194695 0 23.884878-7.136315 29.489452-13.816536 17.617312-21.000861 47.714888-36.241688 71.562044-36.241688 14.752727 0 26.436257 5.616004 33.786329 16.241032 8.671485 12.537418 35.060875 50.688067 49.239771 50.686924 6.898552-0.001143 12.265362-11.851563 15.520885-34.266428 2.839437-19.574284 8.999552-45.599027 29.617477-45.599027 15.932397 0 36.864672 15.451156 72.258187 53.32632 64.568616 69.096398 50.905254 124.073341 42.037157 144.501513-6.277854 14.455524-15.656912 24.550157-22.810373 24.550157-3.080629 0-5.642295-1.700919-6.847113-4.550644-4.378037-10.336968-34.831114-44.795435-47.541138-44.795434-1.016208 0-2.904593 0-3.993959 5.170198-6.858544 32.628378-35.140891 69.327302-81.025691 72.801155-21.634133 1.618616-33.707456-22.512026-43.294557-41.762815-4.759829-9.550522-11.274303-22.633194-15.490021-22.633194-1.056216 0-6.879119 1.299694-17.757912 26.930071-24.885083 58.626831-59.365268 67.380619-77.702728 67.380619z m-13.130682-11.927007c2.653113 0.762441 7.288346 1.783221 13.130682 1.783221 19.336521 0 46.894149-10.618169 68.36482-61.196499 9.852298-23.208169 17.954524-33.110763 27.096963-33.110762 10.493572 0 17.014904 13.09296 24.567304 28.254914 8.706921 17.475569 18.460913 37.255609 33.451403 36.170816 40.666592-3.078343 65.76086-35.734156 71.86725-64.77323 2.417637-11.509779 9.758565-13.228988 13.918271-13.228987 18.591226 0 48.375595 35.614131 55.702805 48.644221 3.440703-2.46336 10.698185-11.109698 15.21568-26.01217 6.757952-22.295982 10.140357-68.219648-43.16996-125.267871-20.097819-21.508393-48.688801-50.107377-64.846388-50.107377-3.516147 0-14.223476 0-19.579999 36.910396-2.677118 18.438052-8.238254 42.95163-25.556076 42.955059-13.846257 0.001143-30.533093-15.949543-57.585476-55.059245-5.44797-7.87818-14.007432-11.869853-25.442911-11.869853-20.765384 0-48.190414 14.022292-63.792457 32.616947-9.160728 10.918801-23.09043 17.437847-37.257896 17.437847-13.830253 0-34.202414-6.092673-52.72734-35.120316-7.821026-12.257361-20.200697-14.831601-29.207108-14.8316-35.259773 0-88.722121 39.444628-90.325877 93.9369L262.074669 335.196461l-0.826454 1.219678c-8.657768 12.794613-29.362568 49.32436-21.300351 64.513747 2.523944 4.758686 8.11823 7.071159 17.099493 7.071159 11.328028 0 27.260425-3.855645 47.353671-11.460627l9.021271-3.414411-2.302184 9.373343c-0.078873 0.316636-7.651849 31.936809 5.172485 48.294435 5.143908 6.56134 12.858626 9.74942 23.581959 9.74942 14.827028 0 34.6928-6.270995 59.044059-18.641522 4.755257-2.41535 9.414494-3.640744 13.849686-3.640744 24.608455 0.001143 33.415968 36.259977 35.528399 47.327381z" fill="#040000" p-id="7247"></path></svg>