<?xml version="1.0" standalone="no"?><!DOCTYPE svg PUBLIC "-//W3C//DTD SVG 1.1//EN" "http://www.w3.org/Graphics/SVG/1.1/DTD/svg11.dtd"><svg t="1523965063342" class="icon" style="" viewBox="0 0 1024 1024" version="1.1" xmlns="http://www.w3.org/2000/svg" p-id="3867" xmlns:xlink="http://www.w3.org/1999/xlink" width="16" height="16"><defs><style type="text/css"></style></defs><path d="M544.15808 901.87156m-27.460832 0a27.460833 27.460833 0 1 0 54.921665 0 27.460833 27.460833 0 1 0-54.921665 0Z" p-id="3868"></path><path d="M642.438956 880.191955m-27.460833 0a27.460833 27.460833 0 1 0 54.921665 0 27.460833 27.460833 0 1 0-54.921665 0Z" p-id="3869"></path><path d="M728.434721 834.664785m-27.460833 0a27.460833 27.460833 0 1 0 54.921666 0 27.460833 27.460833 0 1 0-54.921666 0Z" p-id="3870"></path><path d="M449.490473 875.13338c-172.714185-26.015526-303.514467-177.772759-303.514467-352.654904 0-196.56175 159.706422-356.990826 356.990825-356.990826 57.089626 0 111.288638 13.007763 161.874383 39.023289 11.562456 5.781228 25.292872 1.445307 31.796754-10.117149 5.781228-11.562456 1.445307-25.292872-10.117149-31.796754-57.089626-28.90614-118.515173-44.081863-183.553988-44.081863-222.577276 0-403.240649 180.663373-403.240649 403.240649 0 198.007057 147.421313 369.998589 343.260409 398.904728h3.613268c11.562456 0 21.679605-8.671842 23.124912-20.234297 1.445307-11.562456-7.226535-23.847565-20.234298-25.292873z" p-id="3871"></path><path d="M502.244178 325.916725c-108.398024 0-196.56175 88.163726-196.56175 196.561751s88.163726 196.56175 196.56175 196.56175 196.56175-88.163726 196.56175-196.56175-88.163726-196.56175-196.56175-196.561751z m0 346.151024c-82.382498 0-149.589273-67.206775-149.589273-149.589273 0-82.382498 67.206775-149.589273 149.589273-149.589273 82.382498 0 149.589273 67.206775 149.589273 149.589273 0.722653 82.382498-66.484121 149.589273-149.589273 149.589273zM910.543402 106.952717c-13.007763-13.007763-27.460833-16.62103-34.687368-18.066337-4.335921-0.722653-9.394495-1.445307-14.45307-1.445307-12.285109 0-22.402258 2.890614-26.015526 3.613267-72.265349 23.124912-117.069866 128.632322-117.069866 275.330981 0 94.667608 12.285109 121.405787 38.300635 156.815808 8.671842 11.562456 17.343684 23.847565 27.460833 49.140438 0.722653 1.445307 5.781228 18.066337 5.781228 49.863091v248.592801c0 29.628793 23.847565 53.476359 53.476359 53.476359h26.738179c22.402258 0 41.913903-14.45307 49.140437-36.855328 2.890614-9.394495 4.335921-20.234298 4.335921-36.855328l0.722654-711.091038v-19.511644l-13.730416-13.007763z m-33.242061 744.333098c0 23.847565-2.890614 26.738179-6.503882 26.738179h-26.738179c-3.613267 0-6.503881-2.890614-6.503881-6.503881V622.927311c0-45.52717-9.394495-67.206775-9.394496-67.206775-35.410021-87.441073-62.1482-51.308398-62.1482-188.612561s40.468596-216.796048 84.550459-230.526465c0 0 5.058574-1.445307 11.562456-1.445307 2.16796 0 4.335921 0 6.503881 0.722654 0 0 5.781228 0.722653 10.117149 5.058574l-1.445307 710.368384z" p-id="3872"></path></svg>