<?xml version="1.0" standalone="no"?><!DOCTYPE svg PUBLIC "-//W3C//DTD SVG 1.1//EN" "http://www.w3.org/Graphics/SVG/1.1/DTD/svg11.dtd"><svg t="1523781315040" class="icon" style="" viewBox="0 0 1024 1024" version="1.1" xmlns="http://www.w3.org/2000/svg" p-id="1805" xmlns:xlink="http://www.w3.org/1999/xlink" width="16" height="16"><defs><style type="text/css"></style></defs><path d="M669 961.1H355.2c-33.6 0-60.9-27.3-60.9-60.9V126c0-33.6 27.3-60.9 60.9-60.9H669c33.6 0 60.9 27.3 60.9 60.9v774.2c0 33.6-27.2 60.9-60.9 60.9z" fill="#d81e06" p-id="1806"></path><path d="M323 172h378.1v682.3H323z" fill="#d81e06" p-id="1807"></path><path d="M512.1 903.6m-32.9 0a32.9 32.9 0 1 0 65.8 0 32.9 32.9 0 1 0-65.8 0Z" fill="#d81e06" p-id="1808"></path><path d="M512.1 903.6m-29.1 0a29.1 29.1 0 1 0 58.2 0 29.1 29.1 0 1 0-58.2 0Z" fill="#d81e06" p-id="1809"></path><path d="M565 120.6h-73c-0.3 0-0.5-0.2-0.5-0.5v-7.2c0-0.3 0.2-0.5 0.5-0.5h73c0.3 0 0.5 0.2 0.5 0.5v7.2c0 0.3-0.2 0.5-0.5 0.5z" fill="#d81e06" p-id="1810"></path><path d="M466.9 116.5m-8.2 0a8.2 8.2 0 1 0 16.4 0 8.2 8.2 0 1 0-16.4 0Z" fill="#d81e06" p-id="1811"></path></svg>