<?xml version="1.0" standalone="no"?><!DOCTYPE svg PUBLIC "-//W3C//DTD SVG 1.1//EN" "http://www.w3.org/Graphics/SVG/1.1/DTD/svg11.dtd"><svg t="1524373721282" class="icon" style="" viewBox="0 0 1024 1024" version="1.1" xmlns="http://www.w3.org/2000/svg" p-id="19171" xmlns:xlink="http://www.w3.org/1999/xlink" width="16" height="16"><defs><style type="text/css"></style></defs><path d="M 629.736 387.073 c 0 -64.917 -53.631 -117.538 -119.783 -117.538 S 390.17 322.156 390.17 387.073 c 0 64.897 53.631 117.518 119.783 117.518 s 119.783 -52.621 119.783 -117.518 Z m -208.24 1.796 c 0 -47.925 39.614 -86.792 88.456 -86.792 c 48.86 0 88.456 38.867 88.456 86.792 s -39.596 86.791 -88.456 86.791 c -48.84 0 -88.457 -38.867 -88.457 -86.791 Z m 88.457 423.984 s 287.453 -285.974 287.453 -427.708 c 0 -141.753 -128.709 -256.633 -287.453 -256.633 c -158.744 0 -287.453 114.88 -287.453 256.633 c 0 141.734 287.453 427.708 287.453 427.708 Z m 0 -651.443 c 138.384 0 250.588 101.632 250.588 227.01 c 0 125.396 -250.588 378.38 -250.588 378.38 S 259.365 513.816 259.365 388.42 c 0 -125.378 112.203 -227.01 250.588 -227.01 Z m 169.485 578.61 l -24.813 23.954 c 16.243 10.143 25.86 21.464 25.86 32.374 c 0 30.895 -73.748 65.422 -172.46 65.422 c -98.711 0 -172.46 -34.526 -172.46 -65.422 c 0 -11.902 11.152 -24.327 30.334 -35.162 l -22.493 -25.618 c -26.274 16.505 -41.712 37.409 -41.712 60.742 c 0 56.234 88.681 98.657 206.331 98.657 c 117.631 0 206.332 -42.405 206.332 -98.657 c -0.038 -21.24 -12.762 -40.532 -34.919 -56.29 Z" fill="#8a8a8a" p-id="19172"></path></svg>