<?xml version="1.0" standalone="no"?><!DOCTYPE svg PUBLIC "-//W3C//DTD SVG 1.1//EN" "http://www.w3.org/Graphics/SVG/1.1/DTD/svg11.dtd"><svg t="1524310490452" class="icon" style="" viewBox="0 0 1024 1024" version="1.1" xmlns="http://www.w3.org/2000/svg" p-id="16942" xmlns:xlink="http://www.w3.org/1999/xlink" width="16" height="16"><defs><style type="text/css"></style></defs><path d="M450.56 726.4m-35.84 0a35.84 35.84 0 1 0 71.68 0 35.84 35.84 0 1 0-71.68 0Z" fill="" p-id="16943"></path><path d="M661.12 726.4m-35.84 0a35.84 35.84 0 1 0 71.68 0 35.84 35.84 0 1 0-71.68 0Z" fill="" p-id="16944"></path><path d="M793.6 319.36c-4.48-6.4-11.52-9.6-19.2-9.6h-448l-24.32-75.52h-63.36c-8.96 0-16 7.04-16 16s7.04 16 16 16h40.32l129.92 403.84h300.16c8.96 0 16-7.04 16-16s-7.04-16-16-16h-277.12l-20.48-63.36h270.08c23.68 0 44.16-15.36 51.84-37.76l64-196.48c1.28-7.04 0.64-14.72-3.84-21.12z m-261.76 128v95.36h-47.36l-8.96-95.36h56.32z m-58.88-32l-7.04-73.6h65.92v73.6h-58.88z m90.88 32h55.68l-8.96 95.36H563.2V447.36z m0-32v-73.6h65.92l-7.04 73.6h-58.88z m-129.92-73.6l7.04 73.6h-80.64l-23.68-73.6h97.28z m-63.36 105.6h73.6l8.96 95.36h-51.2l-31.36-95.36z m332.16 80c-3.2 8.96-11.52 15.36-21.12 15.36h-38.4l8.96-95.36h76.8l-26.24 80z m35.84-112h-83.84l7.04-73.6h101.12l-24.32 73.6z" fill="" p-id="16945"></path></svg>