<?xml version="1.0" standalone="no"?><!DOCTYPE svg PUBLIC "-//W3C//DTD SVG 1.1//EN" "http://www.w3.org/Graphics/SVG/1.1/DTD/svg11.dtd"><svg t="1523888221740" class="icon" style="" viewBox="0 0 1024 1024" version="1.1" xmlns="http://www.w3.org/2000/svg" p-id="4423" xmlns:xlink="http://www.w3.org/1999/xlink" width="16" height="16"><defs><style type="text/css"></style></defs><path d="M512 1255.489906M874.892664 440.055966l-1.023386-2.251449c-0.204677-0.307016-0.409354-0.71637-0.614032-1.023386-1.739756-2.558465-2.865481-5.423946-3.479512-8.289426L813.591845 300.875475 200.993004 300.875475 164.765141 407.205277c-0.204677 4.195882-1.43274 8.391765-3.888867 12.075954-0.102339 0.204677-0.307016 0.409354-0.409354 0.71637l-4.195882 12.38297c-0.921047 5.219268-1.43274 11.359584-1.43274 18.625625 0 20.774735 14.839097 47.280432 56.695583 53.420748 23.026184 3.377174 47.075755-3.377174 64.268639-18.21627 11.461923-9.824505 18.011593-21.90046 18.011593-32.953028 0-1.125725 0.102339-2.149111 0.204677-3.274835 0.511693-12.587647 10.847891-22.61683 23.537877-22.61683 12.997002 0 23.537877 10.540875 23.537877 23.537877 0 18.93264 7.163702 37.660604 19.751349 51.476314 12.485309 13.815711 29.064162 21.491105 46.564062 21.491105 17.806916 0 35.818509-7.982411 49.327204-22.002798 10.95023-11.257246 18.113932-25.482311 20.570058-40.11673-0.204677-2.456126-0.307016-5.014591-0.307016-7.470718 0-3.479512 0.71637-6.754347 2.149111-9.722167 2.763142-9.926844 11.871277-17.192884 22.61683-17.192884 12.997002 0 23.537877 10.540875 23.537877 23.537877 0 3.684189-0.204677 7.368379-0.511693 11.052568 2.353788 14.532081 11.359584 29.371177 25.379972 41.754148 16.681191 14.532081 37.865281 23.230861 56.797921 23.230861 18.420947 0 39.298021-9.108135 55.876874-24.458925 16.681191-15.35079 26.198681-34.181091 26.198681-51.578653 0-12.997002 10.540875-23.537877 23.537877-23.537877 11.6666 0 21.388767 8.494104 23.230861 19.649011 0.614032 1.944433 1.023386 4.093544 1.125725 6.242654 0.818709 20.774735 9.824505 40.526084 24.04957 52.806716 15.146112 13.09934 36.227863 18.318609 62.73356 15.555467 38.274635-3.991205 55.672197-30.496902 55.672197-53.318409 0-12.587647-1.43274-22.105137-4.298221-28.45013L874.892664 440.055966zM727.627424 629.075355c-35.409155 24.04957-71.125325 36.227863-106.841495 36.227863-7.777733 0-15.555467-0.614032-23.3332-1.739756-34.181091-5.11693-60.072756-20.365381-76.344593-32.953028-38.376974 24.561263-73.68379 33.157705-104.180692 33.157705-45.95003 0-80.94983-19.341995-99.473116-32.441335-16.988207 12.997002-39.912053 21.90046-68.157505 26.505697L247.864082 881.135319 789.030582 881.135319 789.030582 653.534279C762.934239 647.189286 741.238457 636.75075 727.627424 629.075355zM214.911053 202.630422l590.493704 0c12.997002 0 23.537877-10.540875 23.537877-23.537877s-10.540875-23.537877-23.537877-23.537877L214.911053 155.554667c-12.997002 0-23.537877 10.540875-23.537877 23.537877S201.914052 202.630422 214.911053 202.630422zM916.237458 417.132121 844.293424 253.79972 167.323606 253.79972l-50.248251 147.469918c-2.763142 5.628623-4.912253 11.973616-6.447332 18.93264l-0.921047 2.558465 0.307016 0.102339c-1.637418 8.391765-2.353788 17.704577-2.353788 28.143114 0 26.710374 10.438537 50.555267 30.087547 69.078553 17.090546 16.06716 40.8331 27.119728 66.724765 30.906256 6.140316 0.921047 12.38297 1.330402 18.523286 1.330402 30.394563 0 60.584449-10.847891 83.405956-30.496902 2.149111-1.842095 4.093544-3.684189 6.037977-5.628623 3.888867 6.344993 8.391765 12.38297 13.406356 17.806916 21.593444 23.844893 50.452928 36.944233 81.461523 36.944233 30.496902 0 60.789127-13.201679 83.098941-36.330202 4.093544-4.298221 7.880072-8.801119 11.359584-13.508695 5.014591 6.344993 10.847891 12.485309 17.295223 18.113932 25.379972 22.105137 57.309614 34.795123 87.806516 34.795123 30.394563 0 62.426544-13.508695 87.908855-36.944233 5.935639-5.423946 11.257246-11.257246 15.964821-17.397561 5.526284 8.289426 12.075954 15.760144 19.341995 22.105137 15.248451 13.201679 40.935439 27.631421 80.438137 27.631421 5.730961 0 11.768939-0.307016 18.011593-0.921047 56.695583-5.935639 97.835699-48.099141 97.835699-100.189486C926.368979 446.912652 923.094144 430.436138 916.237458 417.132121zM476.897861 454.38337M873.255247 436.781131c0.204677 0.307016 0.409354 0.71637 0.614032 1.023386l1.023386 2.251449M836.106336 635.522686l0-7.163702-0.102339 0-0.307016-16.374175c-36.637218 0.71637-69.794923-15.248451-86.373776-24.76594-14.532081-8.391765-32.953028-7.675395-46.768739 1.944433-33.464721 23.128523-66.417749 32.543674-98.040376 27.73376-26.608035-3.991205-46.461723-17.192884-55.979212-24.76594-14.736758-11.6666-35.204477-12.689986-51.06696-2.353788-72.046372 47.075755-127.513892 21.388767-154.121927 1.944433-15.862483-11.6666-37.762942-11.154907-53.21607 1.330402-23.435539 18.830302-68.976214 21.593444-84.531681 20.979412l-0.102339 1.842095-2.865481 0-1.944433 273.244054c-0.102339 10.438537 3.888867 20.263042 11.257246 27.631421 7.368379 7.368379 17.090546 11.461923 27.529083 11.461923l557.847691 0c21.388767 0 38.786328-17.397561 38.786328-38.786328L836.106336 659.060564c0.102339 0 0.307016 0 0.409354 0L836.106336 635.522686zM521.210474 630.508095c16.271837 12.587647 42.163502 27.836098 76.344593 32.953028 7.777733 1.125725 15.555467 1.739756 23.3332 1.739756 35.613832 0 71.432341-12.075954 106.841495-36.227863" p-id="4424" fill="#d81e06"></path></svg>