<?xml version="1.0" standalone="no"?><!DOCTYPE svg PUBLIC "-//W3C//DTD SVG 1.1//EN" "http://www.w3.org/Graphics/SVG/1.1/DTD/svg11.dtd"><svg t="1523795542584" class="icon" style="" viewBox="0 0 1036 1024" version="1.1" xmlns="http://www.w3.org/2000/svg" p-id="9550" xmlns:xlink="http://www.w3.org/1999/xlink" width="16.1875" height="16"><defs><style type="text/css"></style></defs><path d="M231.633593 295.165243c0-153.595317 124.940454-278.535771 278.537807-278.535771 153.595317 0 278.535771 124.940454 278.535771 278.535771 0 153.60448-124.940454 278.53068-278.535771 278.53068C356.574047 573.695923 231.633593 448.769723 231.633593 295.165243L231.633593 295.165243zM0 1014.090329c5.996914-67.351756 38.330358-306.001432 286.846943-433.813074 61.63687 48.382571 139.069346 77.514946 223.325474 77.514946 84.715315 0 162.56727-29.428658 224.36908-78.30605 249.591753 127.274058 279.721917 364.250911 285.801301 434.597051C1018.86037 1015.51676 1.473266 1014.201308 0 1014.090329L0 1014.090329zM0 1014.090329" p-id="9551" fill="#d81e06"></path></svg>